<svg xmlns="http://www.w3.org/2000/svg" xmlns:xlink="http://www.w3.org/1999/xlink" viewBox="0 0 18.83 20"><defs><style>.cls-1{fill:none;}.cls-2{clip-path:url(#clip-path);}</style><clipPath id="clip-path"><rect id="SVGID" class="cls-1" x="-531.17" y="65" width="600" height="781"/></clipPath></defs><g id="img"><g class="cls-2"><image id="cut10_282_01.tif" width="5000" height="3334" transform="translate(-938.76 -114.02) scale(0.29)" xlink:href="%E3%80%90SNIDEL%E3%80%91TOP%E6%94%B9%E4%BF%AE%E3%83%86%E3%82%99%E3%82%B5%E3%82%99%E3%82%A4%E3%83%B3/top_ai/Links/cut10_282_01.jpg"/></g></g><g id="txt"><path d="M18.44,5.48A2,2,0,0,0,17,4.65l-12.17-1L4.57,2.44A2.69,2.69,0,0,0,2.31.24L2.09.2.77,0A.66.66,0,0,0,0,.57a.66.66,0,0,0,.56.76h0l1.54.23h0A1.36,1.36,0,0,1,3.25,2.67L5.33,14.48a2.32,2.32,0,0,0,2.29,1.91h8.56a.67.67,0,0,0,0-1.34H7.62a1,1,0,0,1-1-.8l-.29-1.66h9.55a2,2,0,0,0,2-1.57l.9-3.89A2,2,0,0,0,18.44,5.48Z"/><path d="M8.13,17.11a1.45,1.45,0,1,0,1.44,1.45A1.45,1.45,0,0,0,8.13,17.11Z"/><path d="M14.54,17.11A1.45,1.45,0,1,0,16,18.56,1.44,1.44,0,0,0,14.54,17.11Z"/></g></svg>